<svg width="25" height="25" viewBox="0 0 25 25" fill="none" xmlns="http://www.w3.org/2000/svg">
<path d="M2.01379 2.00122H3.7538C4.8338 2.00122 5.6838 2.9318 5.5938 4.00248L4.76379 13.9687C4.62379 15.5997 5.91379 17.0006 7.55379 17.0006H18.2038C19.6438 17.0006 20.9038 15.8199 21.0138 14.389L21.5538 6.88429C21.6738 5.22325 20.4138 3.87239 18.7438 3.87239H5.8338" stroke="#3A3A3A" stroke-width="1.5" stroke-miterlimit="10" stroke-linecap="round" stroke-linejoin="round"/>
<path d="M16.2638 22.0138C16.9541 22.0138 17.5138 21.4538 17.5138 20.763C17.5138 20.0722 16.9541 19.5122 16.2638 19.5122C15.5734 19.5122 15.0138 20.0722 15.0138 20.763C15.0138 21.4538 15.5734 22.0138 16.2638 22.0138Z" stroke="#3A3A3A" stroke-width="1.5" stroke-miterlimit="10" stroke-linecap="round" stroke-linejoin="round"/>
<path d="M8.26379 22.0138C8.95415 22.0138 9.51379 21.4538 9.51379 20.763C9.51379 20.0722 8.95415 19.5122 8.26379 19.5122C7.57344 19.5122 7.01379 20.0722 7.01379 20.763C7.01379 21.4538 7.57344 22.0138 8.26379 22.0138Z" stroke="#3A3A3A" stroke-width="1.5" stroke-miterlimit="10" stroke-linecap="round" stroke-linejoin="round"/>
<path d="M9.01379 8.00513H21.0138" stroke="#3A3A3A" stroke-width="1.5" stroke-miterlimit="10" stroke-linecap="round" stroke-linejoin="round"/>
</svg>
